<?xml version="1.0" encoding="UTF-8"?>
<svg version="1.1" xmlns="http://www.w3.org/2000/svg" width="128" height="128">
<path d="M0 0 C14.66593153 10.19568513 25.60840641 23.74932626 29.74780273 41.46484375 C31.86603529 54.29763126 31.44584138 68.79991362 26.125 80.75 C25.76277344 81.62269531 25.40054688 82.49539062 25.02734375 83.39453125 C17.33536706 100.36902897 3.07751411 111.05081733 -13.734375 117.91796875 C-30.02500275 122.93228047 -49.3872321 120.84818754 -64.375 113.25 C-80.79373216 104.34772371 -91.48385123 89.95575147 -96.98828125 72.1484375 C-100.09059644 59.05712927 -99.35177869 43.05030624 -93.875 30.75 C-93.51277344 29.87730469 -93.15054688 29.00460938 -92.77734375 28.10546875 C-85.8549626 12.82929883 -73.23462165 1.78063924 -57.87109375 -4.47265625 C-38.93392049 -11.50790437 -17.48941603 -10.43527048 0 0 Z " fill="#FCC835" transform="translate(97.875,8.25)"/>
<path d="M0 0 C14.66593153 10.19568513 25.60840641 23.74932626 29.74780273 41.46484375 C31.86603529 54.29763126 31.44584138 68.79991362 26.125 80.75 C25.76277344 81.62269531 25.40054688 82.49539062 25.02734375 83.39453125 C17.33536706 100.36902897 3.07751411 111.05081733 -13.734375 117.91796875 C-30.02500275 122.93228047 -49.3872321 120.84818754 -64.375 113.25 C-80.79373216 104.34772371 -91.48385123 89.95575147 -96.98828125 72.1484375 C-100.09059644 59.05712927 -99.35177869 43.05030624 -93.875 30.75 C-93.51277344 29.87730469 -93.15054688 29.00460938 -92.77734375 28.10546875 C-85.8549626 12.82929883 -73.23462165 1.78063924 -57.87109375 -4.47265625 C-38.93392049 -11.50790437 -17.48941603 -10.43527048 0 0 Z M-57.875 6.75 C-59.421875 7.79607422 -59.421875 7.79607422 -61 8.86328125 C-74.29522122 18.19780011 -74.29522122 18.19780011 -82.6640625 31.55859375 C-82.96570313 32.47060547 -83.26734375 33.38261719 -83.578125 34.32226562 C-84.03445312 35.74055664 -84.03445312 35.74055664 -84.5 37.1875 C-84.81195313 38.12916016 -85.12390625 39.07082031 -85.4453125 40.04101562 C-89.50022409 52.42422622 -88.96418756 60.77916201 -84.875 73.1875 C-84.51277344 74.37666016 -84.15054688 75.56582031 -83.77734375 76.79101562 C-80.51100369 86.76165706 -75.62317651 92.58454899 -66.9375 98.375 C-66.1021875 98.93703125 -65.266875 99.4990625 -64.40625 100.078125 C-63.5709375 100.62984375 -62.735625 101.1815625 -61.875 101.75 C-60.62203125 102.60851562 -60.62203125 102.60851562 -59.34375 103.484375 C-51.62423307 108.747682 -45.60683621 108.99543236 -36.41625977 109.04516602 C-34.93927404 109.05665314 -33.46232875 109.07705328 -31.9855957 109.10668945 C-20.30422419 109.47429861 -20.30422419 109.47429861 -9.875 104.75 C-8.83214844 104.02941406 -7.78929688 103.30882813 -6.71484375 102.56640625 C-5.75707031 101.82261719 -4.79929687 101.07882813 -3.8125 100.3125 C-0.55134494 97.79569433 2.69115568 95.33696032 6.125 93.0625 C12.87065934 87.86272093 14.79553772 80.71847603 17.375 72.875 C17.73851563 71.82441406 18.10203125 70.77382812 18.4765625 69.69140625 C21.87023631 59.49762665 21.43371766 52.49964523 18.375 42.25 C18.12234375 41.35152344 17.8696875 40.45304687 17.609375 39.52734375 C12.52035525 22.04656091 0.51870679 12.9012482 -14.875 3.75 C-20.14545364 1.99318212 -25.81473267 2.4846994 -31.33374023 2.45483398 C-32.81072596 2.44334686 -34.28767125 2.42294672 -35.7644043 2.39331055 C-47.44245502 2.03203022 -47.44245502 2.03203022 -57.875 6.75 Z " fill="#E08429" transform="translate(97.875,8.25)"/>
<path d="M0 0 C14.66593153 10.19568513 25.60840641 23.74932626 29.74780273 41.46484375 C31.86603529 54.29763126 31.44584138 68.79991362 26.125 80.75 C25.76277344 81.62269531 25.40054688 82.49539062 25.02734375 83.39453125 C17.33536706 100.36902897 3.07751411 111.05081733 -13.734375 117.91796875 C-30.02500275 122.93228047 -49.3872321 120.84818754 -64.375 113.25 C-80.79373216 104.34772371 -91.48385123 89.95575147 -96.98828125 72.1484375 C-100.09059644 59.05712927 -99.35177869 43.05030624 -93.875 30.75 C-93.51277344 29.87730469 -93.15054688 29.00460938 -92.77734375 28.10546875 C-85.8549626 12.82929883 -73.23462165 1.78063924 -57.87109375 -4.47265625 C-38.93392049 -11.50790437 -17.48941603 -10.43527048 0 0 Z M-62.875 2.75 C-63.97965799 3.53423463 -65.08619472 4.31583548 -66.1953125 5.09375 C-68.14585519 6.59333157 -70.09497002 8.09477148 -72.04296875 9.59765625 C-73.73734475 10.88538201 -75.46167778 12.13691642 -77.23828125 13.30859375 C-85.84786181 19.03210022 -88.20685245 28.0250081 -90.9609375 37.5859375 C-91.52601897 39.54198875 -92.12829248 41.48822851 -92.7890625 43.4140625 C-96.70379946 54.93875542 -94.58746223 64.30239966 -90.625 75.5625 C-90.22925781 76.75037109 -89.83351563 77.93824219 -89.42578125 79.16210938 C-85.8838627 89.51496312 -82.13842857 95.05716364 -73.1875 101.25 C-72.42244141 101.79269531 -71.65738281 102.33539063 -70.86914062 102.89453125 C-58.70235461 111.48405668 -51.94035542 115.01867766 -37.03808594 115.1550293 C-35.27681749 115.17650424 -33.51565268 115.21048105 -31.75488281 115.25756836 C-17.29702642 115.64135715 -17.29702642 115.64135715 -4.875 108.75 C-3.75889033 107.95368499 -2.64065009 107.16034081 -1.51953125 106.37109375 C-0.58496094 105.65050781 0.34960938 104.92992188 1.3125 104.1875 C4.50510701 101.73164845 7.67660047 99.36625274 11.0625 97.1875 C18.45176311 91.30624977 20.7876313 82.70167674 23.4375 73.9375 C23.79650391 72.82568359 24.15550781 71.71386719 24.52539062 70.56835938 C28.50214544 57.62307561 27.33840589 48.62112833 22.875 35.9375 C22.47925781 34.74962891 22.08351563 33.56175781 21.67578125 32.33789062 C18.1338627 21.98503688 14.38842857 16.44283636 5.4375 10.25 C4.28991211 9.43595703 4.28991211 9.43595703 3.11914062 8.60546875 C0.80010684 6.96827388 -1.53342364 5.35476421 -3.875 3.75 C-4.69436035 3.18667969 -5.5137207 2.62335937 -6.35791016 2.04296875 C-7.5516626 1.23279297 -7.5516626 1.23279297 -8.76953125 0.40625 C-9.4860083 -0.08037109 -10.20248535 -0.56699219 -10.94067383 -1.06835938 C-16.82161483 -4.66090695 -24.66906894 -3.5917918 -31.36010742 -3.6550293 C-33.06604363 -3.67652115 -34.77187222 -3.71051882 -36.47729492 -3.75756836 C-46.80121988 -4.03941261 -54.54104404 -4.11491965 -62.875 2.75 Z " fill="#CE7321" transform="translate(97.875,8.25)"/>
<path d="M0 0 C0.87870729 5.84002381 1.64993986 11.27373815 0 17 C-1.94030429 18.3456249 -3.87709562 19.1883713 -6.0546875 20.09375 C-8.20644059 20.94463393 -8.20644059 20.94463393 -10 23.1875 C-11.75992808 28.13729772 -11.90772687 32.89789568 -9.8125 37.75 C-7.70626265 40.36463947 -5.4364422 42.6917916 -3 45 C-2.67 45.33 -2.34 45.66 -2 46 C0.45792029 46.33343551 0.45792029 46.33343551 3 46 C3.66 45.01 4.32 44.02 5 43 C9.20013569 41.6874576 13.62764875 41.71373776 18 41.625 C19.04800781 41.56892578 19.04800781 41.56892578 20.1171875 41.51171875 C24.16505932 41.4429813 25.75764216 41.79254696 28.875 44.4609375 C29.57625 45.29882812 30.2775 46.13671875 31 47 C33.48754786 48.24377393 35.22655301 48.13306235 38 48.125 C39.3303125 48.12886719 39.3303125 48.12886719 40.6875 48.1328125 C43.02676966 48.15127902 43.02676966 48.15127902 45 47 C46.6627026 49.67478244 47.99983813 51.9995144 49 55 C48.505 55.99 48.505 55.99 48 57 C47.59545756 62.25905171 48.33833147 65.45298292 51 70 C49.35 70 47.7 70 46 70 C45.855625 68.865625 45.71125 67.73125 45.5625 66.5625 C45.38828522 63.19222799 45.38828522 63.19222799 44 62 C42.48071962 61.92820036 40.95832518 61.91607993 39.4375 61.9375 C38.61121094 61.94652344 37.78492188 61.95554688 36.93359375 61.96484375 C36.29550781 61.97644531 35.65742187 61.98804688 35 62 C35 63.98 35 65.96 35 68 C34.67 68 34.34 68 34 68 C33.7525 66.7625 33.505 65.525 33.25 64.25 C32.08054943 59.58866886 30.12064893 57.4625165 26.1875 54.75 C22.93364921 53.63439402 20.41965225 53.64624287 17 54 C12.66023014 56.25334204 9.90311518 58.45366929 8 63 C7.43203421 68.20635305 8.11131244 71.6171637 11 76 C14.56891956 79.05907391 17.54710012 79.34291287 22.0625 79.171875 C24.42582941 78.96222481 26.69847963 78.57538009 29 78 C28 81 28 81 26 82.25 C21.83540451 83.29114887 18.17951804 82.85100203 14 82 C13.10539062 81.83113281 12.21078125 81.66226563 11.2890625 81.48828125 C6.18458988 79.1785377 2.72447904 75.38120637 -1.1875 71.4375 C-2.39696289 70.27637695 -2.39696289 70.27637695 -3.63085938 69.09179688 C-8.65010309 64.0808977 -11.55123771 59.96090354 -13 53 C-13.16314697 52.25806396 -13.32629395 51.51612793 -13.49438477 50.75170898 C-13.94778675 48.50708929 -14.32825788 46.26145859 -14.6875 44 C-14.81705078 43.2575 -14.94660156 42.515 -15.08007812 41.75 C-15.44869745 39.50317748 -15.74391868 37.2622984 -16 35 C-16.08749512 34.29085449 -16.17499023 33.58170898 -16.26513672 32.85107422 C-16.73842921 25.76443554 -13.8733643 20.33993863 -10.75 14.125 C-10.01330078 12.578125 -10.01330078 12.578125 -9.26171875 11 C-3.87660126 0 -3.87660126 0 0 0 Z " fill="#FDCC3F" transform="translate(28,28)"/>
<path d="M0 0 C1.47698573 -0.01148713 2.95393102 -0.03188726 4.43066406 -0.06152344 C20.13007273 -0.37639113 20.13007273 -0.37639113 26.54125977 4.29516602 C27.58411133 5.01575195 28.62696289 5.73633789 29.70141602 6.47875977 C30.65918945 7.22254883 31.61696289 7.96633789 32.60375977 8.73266602 C35.86491483 11.24947169 39.10741545 13.70820569 42.54125977 15.98266602 C48.95782163 20.92876578 50.84648427 27.37867038 53.22875977 34.85766602 C53.53620117 35.79030273 53.84364258 36.72293945 54.16040039 37.68383789 C58.02509881 49.54854659 58.3337755 57.03798194 53.83422852 68.82250977 C52.473543 72.47703976 51.43100817 76.13068545 50.51000977 79.91625977 C47.86885999 86.40198642 43.51161002 90.53498827 37.79125977 94.35766602 C37.17726318 94.78104248 36.5632666 95.20441895 35.93066406 95.640625 C34.14154502 96.87004324 32.3422186 98.08319028 30.54125977 99.29516602 C29.61442383 99.93454102 28.68758789 100.57391602 27.73266602 101.23266602 C20.17241257 106.39697707 14.07891199 106.54164918 5.08251953 106.59033203 C3.6055338 106.60181916 2.12858852 106.62221929 0.65185547 106.65185547 C-15.01718391 106.96611407 -15.01718391 106.96611407 -21.45874023 102.29516602 C-22.48999023 101.5977832 -23.52124023 100.90040039 -24.58374023 100.18188477 C-36.86712978 90.78575934 -43.93477478 84.883847 -48.64624023 69.98266602 C-49.01426758 68.86698242 -49.38229492 67.75129883 -49.76147461 66.60180664 C-52.96440498 56.57705056 -52.65955071 49.83793125 -49.70874023 39.85766602 C-49.45608398 38.95467773 -49.20342773 38.05168945 -48.94311523 37.12133789 C-44.32901767 21.19116606 -35.9994406 14.28353276 -22.45874023 5.29516602 C-20.86739258 4.20268555 -20.86739258 4.20268555 -19.24389648 3.08813477 C-13.30294821 -0.73640276 -6.81792798 0.03689436 0 0 Z M-23.45874023 9.29516602 C-24.9912257 10.063752 -26.53091102 10.81855914 -28.08374023 11.54516602 C-33.51513943 14.36144708 -36.75202974 17.14163237 -39.53686523 22.61157227 C-40.05764648 23.6228418 -40.57842773 24.63411133 -41.11499023 25.67602539 C-41.90389648 27.2509375 -41.90389648 27.2509375 -42.70874023 28.85766602 C-43.25014648 29.91147461 -43.79155273 30.9652832 -44.34936523 32.05102539 C-50.12607971 43.36616486 -49.85129485 51.64698773 -47.70874023 63.98266602 C-47.4728418 65.49183594 -47.4728418 65.49183594 -47.23217773 67.03149414 C-45.43167076 77.53675983 -40.04477007 83.09269479 -32.70874023 90.48266602 C-31.54858398 91.69212891 -31.54858398 91.69212891 -30.36499023 92.92602539 C-23.0232675 100.33549893 -16.61020578 102.39787572 -6.52124023 103.98266602 C-5.40072266 104.17699219 -5.40072266 104.17699219 -4.25756836 104.37524414 C9.14219098 106.56036452 17.55023607 103.48247384 29.35375977 97.29516602 C29.98813965 96.96323242 30.62251953 96.63129883 31.27612305 96.28930664 C37.26472664 93.06625697 41.48279381 90.13231071 44.61938477 84.01391602 C45.14016602 83.0071582 45.66094727 82.00040039 46.19750977 80.96313477 C46.72344727 79.91770508 47.24938477 78.87227539 47.79125977 77.79516602 C48.33266602 76.74973633 48.87407227 75.70430664 49.43188477 74.62719727 C54.43224091 64.86400189 55.82450865 57.57324669 53.10375977 46.82250977 C52.19341417 42.73227645 51.7765771 38.56883514 51.29907227 34.40844727 C49.42259164 26.69940056 43.15861185 21.54633996 37.72875977 16.10766602 C36.94694336 15.30135742 36.16512695 14.49504883 35.35961914 13.66430664 C28.51445128 6.78482717 23.59529807 4.25294133 13.79125977 3.17016602 C6.77690931 2.37371586 6.77690931 2.37371586 3.54125977 1.29516602 C-7.43463019 -0.44447667 -14.39632178 3.92790224 -23.45874023 9.29516602 Z " fill="#EE302C" transform="translate(61.458740234375,10.704833984375)"/>
<path d="M0 0 C0.69416016 -0.03287109 1.38832031 -0.06574219 2.10351562 -0.09960938 C6.12719617 -0.14164213 7.71649493 0.2477664 10.80859375 2.90234375 C11.51113281 3.73894531 12.21367188 4.57554688 12.9375 5.4375 C15.42504786 6.68127393 17.16405301 6.57056235 19.9375 6.5625 C21.2678125 6.56636719 21.2678125 6.56636719 22.625 6.5703125 C24.96426966 6.58877902 24.96426966 6.58877902 26.9375 5.4375 C28.6002026 8.11228244 29.93733813 10.4370144 30.9375 13.4375 C30.6075 14.0975 30.2775 14.7575 29.9375 15.4375 C29.53295756 20.69655171 30.27583147 23.89048292 32.9375 28.4375 C31.2875 28.4375 29.6375 28.4375 27.9375 28.4375 C27.793125 27.303125 27.64875 26.16875 27.5 25 C27.32578522 21.62972799 27.32578522 21.62972799 25.9375 20.4375 C24.41821962 20.36570036 22.89582518 20.35357993 21.375 20.375 C20.54871094 20.38402344 19.72242188 20.39304687 18.87109375 20.40234375 C18.23300781 20.41394531 17.59492187 20.42554687 16.9375 20.4375 C16.9375 22.4175 16.9375 24.3975 16.9375 26.4375 C16.6075 26.4375 16.2775 26.4375 15.9375 26.4375 C15.69 25.2 15.4425 23.9625 15.1875 22.6875 C14.01804943 18.02616886 12.05814893 15.9000165 8.125 13.1875 C4.87114921 12.07189402 2.35715225 12.08374287 -1.0625 12.4375 C-5.40226986 14.69084204 -8.15938482 16.89116929 -10.0625 21.4375 C-10.63046579 26.64385305 -9.95118756 30.0546637 -7.0625 34.4375 C-3.49358044 37.49657391 -0.51539988 37.78041287 4 37.609375 C6.36332941 37.39972481 8.63597963 37.01288009 10.9375 36.4375 C9.9375 39.4375 9.9375 39.4375 7.9375 40.6875 C3.04578523 41.91042869 -1.60102644 41.72640014 -6.12890625 39.35546875 C-9.17653907 37.24948448 -10.97791674 35.56437489 -13.0625 32.4375 C-13.19775391 30.07739258 -13.19775391 30.07739258 -13.0390625 27.33203125 C-12.9875 26.34912109 -12.9359375 25.36621094 -12.8828125 24.35351562 C-12.81835938 23.32935547 -12.75390625 22.30519531 -12.6875 21.25 C-12.63078125 20.21423828 -12.5740625 19.17847656 -12.515625 18.11132812 C-12.37413334 15.55268729 -12.22272134 12.99502516 -12.0625 10.4375 C-12.7225 10.4375 -13.3825 10.4375 -14.0625 10.4375 C-14.0625 7.7975 -14.0625 5.1575 -14.0625 2.4375 C-9.34977498 0.60108602 -5.01431815 0.04213713 0 0 Z " fill="#FBBC13" transform="translate(46.0625,69.5625)"/>
<path d="M0 0 C4.48742534 2.20291789 6.8978767 4.4804349 9 9 C9.74259349 11.31029085 10.411438 13.645752 11 16 C11.2475 16.928125 11.495 17.85625 11.75 18.8125 C11.87375 19.8953125 11.87375 19.8953125 12 21 C9.30992402 23.69007598 6.63144185 24.02729236 3 25 C2.34 25.33 1.68 25.66 1 26 C-4.14112877 26.5880376 -9.31516132 27.17453731 -13.5625 23.8125 C-16.89710615 19.96487752 -17.82619386 17.59322292 -18.375 12.5625 C-17.85211582 7.59510026 -15.85470204 4.66133948 -12.1640625 1.35546875 C-8.34498347 -1.03662588 -4.3492589 -0.61837804 0 0 Z " fill="#D4202B" transform="translate(64,15)"/>
<path d="M0 0 C-0.33 1.65 -0.66 3.3 -1 5 C-0.34 5 0.32 5 1 5 C1.66 4.01 2.32 3.02 3 2 C6.83641483 3.50716297 8.85990819 5.48413488 11 9 C11.62409585 14.61686269 11.18169427 18.1726018 8 23 C5.72401089 25.62083595 4.11277192 26.81763938 0.6640625 27.3828125 C-3.66588682 27.57785526 -6.4798352 27.24589609 -10.4375 25.375 C-13.26709657 22.75244708 -14.62482768 20.59072773 -16 17 C-16 16.01 -16 15.02 -16 14 C-17.32 13.34 -18.64 12.68 -20 12 C-20.125 9.625 -20.125 9.625 -20 7 C-19.34 6.34 -18.68 5.68 -18 5 C-16.8553125 5.061875 -16.8553125 5.061875 -15.6875 5.125 C-12.05727078 4.95615213 -10.65777878 3.37045135 -8 1 C-5.29120665 -0.35439668 -2.99066732 -0.06501451 0 0 Z " fill="#D4212B" transform="translate(68,50)"/>
<path d="M0 0 C3.65443479 2.08714004 6.79055905 4.88790076 8 9 C8.63585723 14.72271511 7.56000167 17.52456933 4 22 C1.89967042 24.43638232 1.15319369 24.94893544 -2 26 C-2.66 26.99 -3.32 27.98 -4 29 C-6.3125 29.5 -6.3125 29.5 -9 29 C-11.5625 26.75 -11.5625 26.75 -14 24 C-14.7425 23.29875 -15.485 22.5975 -16.25 21.875 C-19.43716417 18.46018124 -19.34231046 14.72454809 -19.27734375 10.28515625 C-18.83767775 6.66255607 -17.41791641 4.67243392 -15 2 C-10.11683112 -1.52042408 -5.63500474 -1.66328405 0 0 Z " fill="#D4222B" transform="translate(35,46)"/>
<path d="M0 0 C3.6274662 1.3986313 6.37943792 3.27934726 8.9375 6.25 C10.89038381 11.30452279 10.61437922 15.37189507 8.75 20.3125 C6.29851151 24.0772859 4.23313019 25.5889566 0 27 C-4.68953585 27.38438818 -7.06443464 27.45895659 -11.3125 25.375 C-15.35070586 21.80635297 -16.77134963 18.82920294 -17.4375 13.5 C-16.74645309 7.9716247 -14.37443276 5.16063211 -10.1875 1.625 C-6.33997539 -0.33648313 -4.27096387 -0.59943353 0 0 Z " fill="#D4212B" transform="translate(99,34)"/>
<path d="M0 0 C3.6274662 1.3986313 6.37943792 3.27934726 8.9375 6.25 C10.89038381 11.30452279 10.61437922 15.37189507 8.75 20.3125 C6.29851151 24.0772859 4.23313019 25.5889566 0 27 C-4.68953585 27.38438818 -7.06443464 27.45895659 -11.3125 25.375 C-15.35070586 21.80635297 -16.77134963 18.82920294 -17.4375 13.5 C-16.74645309 7.9716247 -14.37443276 5.16063211 -10.1875 1.625 C-6.33997539 -0.33648313 -4.27096387 -0.59943353 0 0 Z " fill="#D4202A" transform="translate(52,81)"/>
<path d="M0 0 C0.66 1.65 1.32 3.3 2 5 C2.66 5 3.32 5 4 5 C4 3.35 4 1.7 4 0 C8.25742137 0.47304682 10.25705098 2.8863822 13 6 C14.24283781 9.72851342 14.5280726 13.12746761 14 17 C11.77915243 21.35944153 9.57923841 24.16830464 5 26 C0.95887487 26.75343011 -2.44220076 26.90994322 -6.06640625 24.79296875 C-10.34940794 21.26105713 -12.74941574 18.25525837 -13.375 12.625 C-12.93060645 8.32919568 -11.70408706 6.32216411 -9 3 C-5.87496336 0.91664224 -3.72863529 0 0 0 Z " fill="#D4222B" transform="translate(88,76)"/>
<path d="M0 0 C3.41064923 0.58230597 4.53830677 1.66360557 6.5625 4.4375 C6.8125 7.1875 6.8125 7.1875 6.5625 9.4375 C7.614375 9.169375 8.66625 8.90125 9.75 8.625 C13.5625 8.4375 13.5625 8.4375 16.25 10.6875 C17.013125 11.595 17.77625 12.5025 18.5625 13.4375 C19.325625 13.870625 20.08875 14.30375 20.875 14.75 C22.99292372 16.86792372 22.80737067 17.7012817 22.8125 20.625 C22.73 21.883125 22.6475 23.14125 22.5625 24.4375 C24.2125 25.0975 25.8625 25.7575 27.5625 26.4375 C27.5625 27.0975 27.5625 27.7575 27.5625 28.4375 C25.5825 29.4275 25.5825 29.4275 23.5625 30.4375 C23.5625 32.4175 23.5625 34.3975 23.5625 36.4375 C22.2425 36.4375 20.9225 36.4375 19.5625 36.4375 C19.0675 33.9625 19.0675 33.9625 18.5625 31.4375 C14.65038267 32.59335285 11.6879959 33.79284962 8.5625 36.4375 C6.13246323 35.4968406 4.84175791 34.94365495 3.5625 32.625 C3.5625 29.31676418 5.44623093 27.86498511 7.5625 25.4375 C8.80572791 21.70781627 9.23249666 18.30454594 8.5625 14.4375 C7.14454842 11.92433954 5.69266221 10.46622591 3.5625 8.4375 C2.9025 8.4375 2.2425 8.4375 1.5625 8.4375 C0.5725 9.9225 0.5725 9.9225 -0.4375 11.4375 C-1.4275 11.1075 -2.4175 10.7775 -3.4375 10.4375 C-2.7775 8.7875 -2.1175 7.1375 -1.4375 5.4375 C-2.7575 4.7775 -4.0775 4.1175 -5.4375 3.4375 C-3.69857595 1.24096435 -2.79998966 0.50256225 0 0 Z " fill="#FDCC3F" transform="translate(69.4375,44.5625)"/>
<path d="M0 0 C2.90703298 0.34200388 4.52253364 0.54628007 7 2 C9.11110167 5.15620151 10.59124521 8.481359 12 12 C7.51890664 15.01986727 4.29857818 17.02394612 -1 18 C-1.25030977 20.41619823 -1.25030977 20.41619823 -1 23 C-0.01 23.66 0.98 24.32 2 25 C2.33 26.98 2.66 28.96 3 31 C-5.415 31.495 -5.415 31.495 -14 32 C-13.113125 30.72125 -12.22625 29.4425 -11.3125 28.125 C-5.32457888 19.05838359 -2.06270859 10.69925266 0 0 Z " fill="#FDCD3E" transform="translate(50,39)"/>
<path d="M0 0 C3.63 0.99 7.26 1.98 11 3 C10.34 3.969375 9.68 4.93875 9 5.9375 C6.7688234 9.76572932 6.68397279 12.82551204 6.95703125 17.1796875 C6.97121094 17.78039062 6.98539063 18.38109375 7 19 C6 20 6 20 2.9375 20.0625 C1.968125 20.041875 0.99875 20.02125 0 20 C-0.28875 19.05125 -0.5775 18.1025 -0.875 17.125 C-1.76825109 13.94788422 -1.76825109 13.94788422 -4 12 C-7.59679066 12.32326553 -7.59679066 12.32326553 -11 13 C-10.67 13.99 -10.34 14.98 -10 16 C-11.65 16 -13.3 16 -15 16 C-16.32 13.03 -17.64 10.06 -19 7 C-17.515 6.731875 -16.03 6.46375 -14.5 6.1875 C-9.73424033 5.2316364 -5.4566944 3.94473937 -1 2 C-0.67 1.34 -0.34 0.68 0 0 Z " fill="#FABB13" transform="translate(76,34)"/>
<path d="M0 0 C1.09570312 0.00902344 2.19140625 0.01804687 3.3203125 0.02734375 C4.58488281 0.04474609 4.58488281 0.04474609 5.875 0.0625 C3.44685076 3.00812367 1.67017511 3.47723029 -2.0625 3.9375 C-6.22385001 4.64878003 -6.22385001 4.64878003 -9.4375 7.375 C-9.994375 8.261875 -10.55125 9.14875 -11.125 10.0625 C-14.93237603 14.48728836 -17.57579022 15.86561162 -23.125 17.0625 C-23.063125 18.238125 -23.063125 18.238125 -23 19.4375 C-23.125 22.0625 -23.125 22.0625 -25.125 24.0625 C-27.75 23.6875 -27.75 23.6875 -30.125 23.0625 C-30.785 21.0825 -31.445 19.1025 -32.125 17.0625 C-32.785 17.3925 -33.445 17.7225 -34.125 18.0625 C-30.30593018 9.23785324 -16.40154228 5.11554359 -8.125 1.0625 C-5.36047967 -0.31976016 -3.0788637 -0.03275387 0 0 Z " fill="#FDC93E" transform="translate(59.125,11.9375)"/>
<path d="M0 0 C0.928125 0.825 1.85625 1.65 2.8125 2.5 C15.88969502 13.70147614 26.13283889 21.20140907 43.45874023 21.29516602 C44.93572596 21.30665314 46.41267125 21.32705328 47.8894043 21.35668945 C59.57325381 21.72919857 59.57325381 21.72919857 70 17 C71.04285156 16.2678125 72.08570312 15.535625 73.16015625 14.78125 C74.11792969 14.0284375 75.07570313 13.275625 76.0625 12.5 C80.24835821 9.27970097 84.3238588 6.44434654 89 4 C85.34129531 13.03434342 74.62484944 18.06820565 66.23828125 21.80859375 C51.05046196 27.39639216 35.87631539 26.19893424 21.14453125 19.75 C13.48414218 15.94681671 4.39477576 10.13983215 0.69140625 2.19140625 C0.46324219 1.46824219 0.23507813 0.74507813 0 0 Z " fill="#F8CB95" transform="translate(18,95)"/>
<path d="M0 0 C3.51024001 2.8343273 6.80332974 5.81776166 10 9 C9.67 9.66 9.34 10.32 9 11 C8.09378906 10.34773438 7.18757813 9.69546875 6.25390625 9.0234375 C-10.42324091 -3.15785701 -10.42324091 -3.15785701 -30.45874023 -6.29516602 C-31.93572596 -6.30665314 -33.41267125 -6.32705328 -34.8894043 -6.35668945 C-46.56745502 -6.71796978 -46.56745502 -6.71796978 -57 -2 C-58.03125 -1.30261719 -59.0625 -0.60523438 -60.125 0.11328125 C-65.39786247 4.14673447 -70.56796633 8.21384273 -75.4765625 12.6875 C-77 14 -77 14 -79 15 C-74.37110694 4.05898005 -63.18746819 -2.37229253 -52.80078125 -6.9921875 C-34.70780394 -13.50263122 -15.9792275 -10.44719108 0 0 Z " fill="#F8CA95" transform="translate(97,18)"/>
<path d="M0 0 C3.05882701 1.52941351 3.68951234 3.94219546 5 7 C4.67 7.66 4.34 8.32 4 9 C3.21625 8.835 2.4325 8.67 1.625 8.5 C-0.88208039 7.9376293 -0.88208039 7.9376293 -3 8 C-3 10.31 -3 12.62 -3 15 C-0.69 15 1.62 15 4 15 C2.68139111 19.61513112 0.78644563 23.09897612 -2 27 C-2.66 26.01 -3.32 25.02 -4 24 C-6.56675597 21.30161552 -8.89548863 19.06967424 -12 17 C-10.35 16.34 -8.7 15.68 -7 15 C-8.63412443 13.29159719 -9.86906094 12.06546953 -12 11 C-12 8.36 -12 5.72 -12 3 C-11.30132812 2.86722656 -10.60265625 2.73445313 -9.8828125 2.59765625 C-8.51769531 2.33275391 -8.51769531 2.33275391 -7.125 2.0625 C-6.22007813 1.88847656 -5.31515625 1.71445312 -4.3828125 1.53515625 C-2.00043683 1.10036299 -2.00043683 1.10036299 0 0 Z " fill="#FABC14" transform="translate(104,58)"/>
<path d="M0 0 C23.38247851 1.09022599 23.38247851 1.09022599 30 6 C30 6.33 30 6.66 30 7 C29.38511719 7.02578125 28.77023438 7.0515625 28.13671875 7.078125 C23.17887428 7.33631916 23.17887428 7.33631916 18.9375 9.625 C17.25942924 13.8761126 17.57461138 17.72383413 19 22 C16.48039553 21.65246835 15.22697584 21.218246 13.375 19.4375 C12.07885787 17.13979349 11.64245 15.60183798 11.125 13.0625 C10.17032128 8.81773017 8.41238897 6.77752591 5 4 C3.3497306 2.9731657 1.68756133 1.96432076 0 1 C0 0.67 0 0.34 0 0 Z " fill="#FDCB40" transform="translate(61,13)"/>
<path d="M0 0 C2 1.625 2 1.625 3 4 C3.02734375 6.87890625 3.02734375 6.87890625 2 10 C-0.26038535 11.88781096 -2.78102801 13.06888846 -5.4375 14.3125 C-6.13166016 14.65861328 -6.82582031 15.00472656 -7.54101562 15.36132812 C-9.35117656 16.26027542 -11.17482017 17.13195193 -13 18 C-13.66 18.33 -14.32 18.66 -15 19 C-13.87725238 16.14994834 -12.70566698 13.35246735 -11.4375 10.5625 C-9.8918714 7.10272356 -9.8918714 7.10272356 -9.4375 3.625 C-9.293125 2.75875 -9.14875 1.8925 -9 1 C-5.9167365 -0.54163175 -3.39121901 -0.29747535 0 0 Z " fill="#FBBC17" transform="translate(72,89)"/>
<path d="M0 0 C1 2 1 2 0.48681641 4.07543945 C0.19468262 4.91292725 -0.09745117 5.75041504 -0.3984375 6.61328125 C-0.71296875 7.53173828 -1.0275 8.45019531 -1.3515625 9.39648438 C-1.85816406 10.83991211 -1.85816406 10.83991211 -2.375 12.3125 C-3.03139294 14.20347575 -3.68512757 16.09537676 -4.3359375 17.98828125 C-4.63032715 18.82915283 -4.9247168 19.67002441 -5.22802734 20.53637695 C-8.43426309 30.76854802 -6.3394846 37.90187707 -2.9375 47.8125 C-2.16914662 50.06675992 -1.40707698 52.3231748 -0.65234375 54.58203125 C-0.31195068 55.57436768 0.02844238 56.5667041 0.37915039 57.58911133 C1 60 1 60 0 62 C-8.15011066 46.64930614 -12.28333957 32.15357851 -7.3125 14.9375 C-5.43381015 9.63137956 -2.99996811 4.75814615 0 0 Z " fill="#F9D49E" transform="translate(17,33)"/>
<path d="M0 0 C2.74573672 2.40952406 4.07057727 4.87159651 5.5625 8.1875 C5.97628906 9.08855469 6.39007813 9.98960938 6.81640625 10.91796875 C12.50770737 25.73789146 10.98021741 40.55305372 5 55 C3.73880433 57.38701529 2.39263847 59.68488733 1 62 C0 60 0 60 0.62084961 57.69677734 C0.96124268 56.7527002 1.30163574 55.80862305 1.65234375 54.8359375 C2.19858398 53.27552734 2.19858398 53.27552734 2.75585938 51.68359375 C3.53575555 49.49988447 4.31953175 47.31755653 5.10742188 45.13671875 C8.74146259 34.71528981 8.35003109 27.9451013 5.125 17.4375 C4.85558594 16.53064453 4.58617188 15.62378906 4.30859375 14.68945312 C3.78574169 12.93088486 3.25889938 11.17349665 2.72753906 9.41748047 C1.78549584 6.28724156 0.88890612 3.14569203 0 0 Z " fill="#FAD49E" transform="translate(110,33)"/>
<path d="M0 0 C3 1 3 1 4 3 C7.465 2.505 7.465 2.505 11 2 C11.33 2.99 11.66 3.98 12 5 C10.35 5.66 8.7 6.32 7 7 C7.99 8.98 8.98 10.96 10 13 C9.67 13.33 9.34 13.66 9 14 C5.6875 13.9375 5.6875 13.9375 2 13 C-0.5 10.3125 -0.5 10.3125 -2 7 C-1.7 1.7 -1.7 1.7 0 0 Z " fill="#EED3B3" transform="translate(23,79)"/>
<path d="M0 0 C2.8125 0.9375 2.8125 0.9375 5.8125 2.9375 C5.8125 3.5975 5.8125 4.2575 5.8125 4.9375 C3.8325 5.9275 3.8325 5.9275 1.8125 6.9375 C1.8125 8.9175 1.8125 10.8975 1.8125 12.9375 C0.4925 12.9375 -0.8275 12.9375 -2.1875 12.9375 C-2.5175 11.2875 -2.8475 9.6375 -3.1875 7.9375 C-5.1675 8.5975 -7.1475 9.2575 -9.1875 9.9375 C-9.5625 7.75 -9.5625 7.75 -9.1875 4.9375 C-6.16716503 1.62951408 -4.57949514 -0.08979402 0 0 Z " fill="#EDCEB2" transform="translate(91.1875,68.0625)"/>
<path d="M0 0 C1.0725 0.103125 2.145 0.20625 3.25 0.3125 C2.67415568 2.69814077 2.02772405 4.97932784 1.25 7.3125 C2.57 7.9725 3.89 8.6325 5.25 9.3125 C4.92 10.3025 4.59 11.2925 4.25 12.3125 C-0.5 10.4375 -0.5 10.4375 -2.75 9.3125 C-3.41 10.6325 -4.07 11.9525 -4.75 13.3125 C-5.74 12.9825 -6.73 12.6525 -7.75 12.3125 C-8.06087045 8.34890173 -8.07482417 5.92316944 -6.1875 2.375 C-3.75 0.3125 -3.75 0.3125 0 0 Z " fill="#EED2B3" transform="translate(85.75,19.6875)"/>
<path d="M0 0 C3.875 1.875 3.875 1.875 5 3 C5.375 5.75 5.375 5.75 5 9 C2.5 11.875 2.5 11.875 0 14 C-0.66 13.67 -1.32 13.34 -2 13 C-2 11.35 -2 9.7 -2 8 C-3.65 8 -5.3 8 -7 8 C-7 7.01 -7 6.02 -7 5 C-5.02 5 -3.04 5 -1 5 C-0.67 3.35 -0.34 1.7 0 0 Z " fill="#EED0A7" transform="translate(43,35)"/>
<path d="M0 0 C3.38220763 0.57745008 4.5240076 1.71951013 6.5625 4.4375 C6.5625 5.7575 6.5625 7.0775 6.5625 8.4375 C5.77875 8.375625 4.995 8.31375 4.1875 8.25 C2.888125 8.3428125 2.888125 8.3428125 1.5625 8.4375 C0.5725 9.9225 0.5725 9.9225 -0.4375 11.4375 C-1.4275 11.1075 -2.4175 10.7775 -3.4375 10.4375 C-2.7775 8.7875 -2.1175 7.1375 -1.4375 5.4375 C-2.7575 4.7775 -4.0775 4.1175 -5.4375 3.4375 C-3.69857595 1.24096435 -2.79998966 0.50256225 0 0 Z " fill="#EDCCAF" transform="translate(69.4375,44.5625)"/>
<path d="M0 0 C1.9375 1.75 1.9375 1.75 3 4 C3 5.32 3 6.64 3 8 C1.35 7.67 -0.3 7.34 -2 7 C-2.99 8.485 -2.99 8.485 -4 10 C-4.99 10 -5.98 10 -7 10 C-6.34 8.02 -5.68 6.04 -5 4 C-6.32 3.67 -7.64 3.34 -9 3 C-9 2.34 -9 1.68 -9 1 C-5.9167365 -0.54163175 -3.39121901 -0.29747535 0 0 Z " fill="#EED2B0" transform="translate(72,89)"/>
<path d="M0 0 C10.40798659 0.56825214 20.67275755 1.60222605 31 3 C31 3.33 31 3.66 31 4 C26.58338849 4.05804281 22.16687504 4.09361104 17.75 4.125 C16.49574219 4.14175781 15.24148437 4.15851563 13.94921875 4.17578125 C12.74394531 4.18222656 11.53867187 4.18867187 10.296875 4.1953125 C8.63156738 4.21102295 8.63156738 4.21102295 6.93261719 4.22705078 C4.06049058 4.00468334 2.42776265 3.49281575 0 2 C0 1.34 0 0.68 0 0 Z " fill="#ED2326" transform="translate(44,113)"/>
<path d="M0 0 C1.1446875 0.3403125 1.1446875 0.3403125 2.3125 0.6875 C2.9375 3 2.9375 3 3.3125 5.6875 C2.3225 7.1725 2.3225 7.1725 1.3125 8.6875 C-1.6575 8.1925 -1.6575 8.1925 -4.6875 7.6875 C-5.375 5.375 -5.375 5.375 -5.6875 2.6875 C-4.0011022 -0.12316299 -3.27764429 -0.38112143 0 0 Z " fill="#6C5E40" transform="translate(105.6875,65.3125)"/>
<path d="M0 0 C1.9375 0.75 1.9375 0.75 3.9375 2.75 C3.38194444 7.30555556 3.38194444 7.30555556 1.9375 8.75 C-0.5 8.9375 -0.5 8.9375 -3.0625 8.75 C-5.0625 6.75 -5.0625 6.75 -5.375 4.25 C-5.271875 3.425 -5.16875 2.6 -5.0625 1.75 C-2.0625 -0.25 -2.0625 -0.25 0 0 Z " fill="#6A4541" transform="translate(29.0625,66.25)"/>
<path d="M0 0 C3.29714793 0.32971479 4.6226839 0.6226839 7 3 C6.63318342 5.93453261 6.13562754 6.86437246 4 9 C-0.55555556 8.44444444 -0.55555556 8.44444444 -2 7 C-2.1875 4.5625 -2.1875 4.5625 -2 2 C-1.34 1.34 -0.68 0.68 0 0 Z " fill="#7E4C3F" transform="translate(50,55)"/>
<path d="M0 0 C3 0.125 3 0.125 4 1.125 C4.125 4.125 4.125 4.125 4 7.125 C3 8.125 3 8.125 0 8.25 C-3 8.125 -3 8.125 -4 7.125 C-4.125 4.125 -4.125 4.125 -4 1.125 C-3 0.125 -3 0.125 0 0 Z " fill="#927D45" transform="translate(70,102.875)"/>
<path d="M0 0 C2.5625 0.1875 2.5625 0.1875 4.5625 2.1875 C4.00694444 6.74305556 4.00694444 6.74305556 2.5625 8.1875 C0.125 8.375 0.125 8.375 -2.4375 8.1875 C-3.0975 7.5275 -3.7575 6.8675 -4.4375 6.1875 C-3.71780303 0.28598485 -3.71780303 0.28598485 0 0 Z " fill="#8A5A3B" transform="translate(71.4375,29.8125)"/>
<path d="M0 0 C4.55555556 0.55555556 4.55555556 0.55555556 6 2 C6.1875 4.4375 6.1875 4.4375 6 7 C5.34 7.66 4.68 8.32 4 9 C-0.55555556 8.44444444 -0.55555556 8.44444444 -2 7 C-2.1875 4.5625 -2.1875 4.5625 -2 2 C-1.34 1.34 -0.68 0.68 0 0 Z " fill="#6C5E44" transform="translate(30,27)"/>
<path d="M0 0 C1 2 1 2 0.37915039 4.33837891 C0.03875732 5.29147949 -0.30163574 6.24458008 -0.65234375 7.2265625 C-1.01650391 8.2578125 -1.38066406 9.2890625 -1.75585938 10.3515625 C-2.34077148 11.97191406 -2.34077148 11.97191406 -2.9375 13.625 C-3.32357422 14.71296875 -3.70964844 15.8009375 -4.10742188 16.921875 C-5.06491865 19.61705111 -6.02937173 22.30953089 -7 25 C-7.33 25 -7.66 25 -8 25 C-8.13953796 15.23234298 -4.63882124 8.2965863 0 0 Z " fill="#F9D7A0" transform="translate(17,33)"/>
<path d="M0 0 C5.70637077 5.07232957 8.15085379 12.77514463 8.8125 20.1875 C8.89546479 21.79073853 8.96585063 23.39497951 9 25 C6.7465128 22.7465128 6.26351549 21.28025546 5.2734375 18.28125 C4.9640625 17.34925781 4.6546875 16.41726562 4.3359375 15.45703125 C4.01882812 14.48121094 3.70171875 13.50539063 3.375 12.5 C2.88773437 11.03626953 2.88773437 11.03626953 2.390625 9.54296875 C0 2.28069196 0 2.28069196 0 0 Z " fill="#F9D79F" transform="translate(110,33)"/>
<path d="M0 0 C1.17079102 0.01160156 1.17079102 0.01160156 2.36523438 0.0234375 C3.53022461 0.01183594 3.53022461 0.01183594 4.71875 0 C8.62825605 0.01346944 10.60720469 0.05975105 13.92773438 2.2734375 C11.38647265 2.46961566 8.84512978 2.65560998 6.30273438 2.8359375 C5.58988281 2.89201172 4.87703125 2.94808594 4.14257812 3.00585938 C-0.10894667 3.29839548 -3.86682909 3.16891689 -8.07226562 2.2734375 C-5.45410824 -0.34471989 -3.56758224 0.01231262 0 0 Z " fill="#F9D79D" transform="translate(61.072265625,7.7265625)"/>
<path d="M0 0 C0.33 0 0.66 0 1 0 C1.103125 1.258125 1.20625 2.51625 1.3125 3.8125 C1.64022089 6.35345923 1.84955114 7.76680427 3.25 9.9375 C5.45538602 11.27648437 7.45889061 11.65660684 10 12 C9.67 12.66 9.34 13.32 9 14 C4.5298692 13.82807189 2.60817225 13.65378517 -0.5 10.3125 C-2.2012766 6.55551418 -2.17784233 4.89594 -1 1 C-0.67 0.67 -0.34 0.34 0 0 Z " fill="#D1B996" transform="translate(23,79)"/>
<path d="M0 0 C2.8125 0.9375 2.8125 0.9375 5.8125 2.9375 C5.4825 3.5975 5.1525 4.2575 4.8125 4.9375 C4.1525 4.6075 3.4925 4.2775 2.8125 3.9375 C-0.55994761 3.64424369 -2.57055009 3.596554 -5.5625 5.25 C-7.53432084 6.90720876 -7.53432084 6.90720876 -7.1875 9.9375 C-7.8475 9.9375 -8.5075 9.9375 -9.1875 9.9375 C-9.5625 7.75 -9.5625 7.75 -9.1875 4.9375 C-6.16716503 1.62951408 -4.57949514 -0.08979402 0 0 Z " fill="#D0B594" transform="translate(91.1875,68.0625)"/>
<path d="M0 0 C2.18094438 3.27141657 2.18744729 3.95612744 2 7.6875 C1.88685597 12.50319291 2.63497641 16.39304539 4 21 C3.34 21 2.68 21 2 21 C1.67 21.66 1.34 22.32 1 23 C-0.23402862 18.22907044 -0.11265112 13.57530554 -0.0625 8.6875 C-0.05798828 7.85154297 -0.05347656 7.01558594 -0.04882812 6.15429688 C-0.03710548 4.10283351 -0.01917203 2.05140727 0 0 Z " fill="#F5BF88" transform="translate(8,55)"/>
<path d="M0 0 C1.0725 0.103125 2.145 0.20625 3.25 0.3125 C2.6725 0.56 2.095 0.8075 1.5 1.0625 C-1.19802385 2.56140214 -2.83748093 3.87238946 -4.75 6.3125 C-5.55765878 9.95971696 -5.55765878 9.95971696 -5.75 13.3125 C-6.41 12.9825 -7.07 12.6525 -7.75 12.3125 C-8.06087045 8.34890173 -8.07482417 5.92316944 -6.1875 2.375 C-3.75 0.3125 -3.75 0.3125 0 0 Z " fill="#CCB698" transform="translate(85.75,19.6875)"/>
<path d="M0 0 C0 3 0 3 -1.86328125 5.0078125 C-2.67152344 5.70648438 -3.47976562 6.40515625 -4.3125 7.125 C-5.51326172 8.18074219 -5.51326172 8.18074219 -6.73828125 9.2578125 C-9 11 -9 11 -12 12 C-10.63959469 7.47313406 -8.79209034 5.74867445 -4.875 3.1875 C-3.96492188 2.58292969 -3.05484375 1.97835937 -2.1171875 1.35546875 C-1.41851562 0.90816406 -0.71984375 0.46085937 0 0 Z " fill="#F8D39A" transform="translate(106,99)"/>
<path d="M0 0 C3.875 1.875 3.875 1.875 5 3 C5.375 5.75 5.375 5.75 5 9 C2.5 11.875 2.5 11.875 0 14 C-0.33 13.34 -0.66 12.68 -1 12 C-0.34 12 0.32 12 1 12 C2.29616272 5.71148966 2.29616272 5.71148966 0 0 Z " fill="#CFB794" transform="translate(43,35)"/>
<path d="M0 0 C2.625 0.375 2.625 0.375 5 1 C5 1.66 5 2.32 5 3 C4.34 3 3.68 3 3 3 C2.34 4.32 1.68 5.64 1 7 C-1 6 -1 6 -1.75 4.0625 C-1.8325 3.381875 -1.915 2.70125 -2 2 C-1.34 1.34 -0.68 0.68 0 0 Z " fill="#A48945" transform="translate(50,55)"/>
<path d="M0 0 C3.38264946 0.57752552 4.57055789 1.67942631 6.5625 4.4375 C6.3125 6.6875 6.3125 6.6875 5.5625 8.4375 C4.510625 7.2 4.510625 7.2 3.4375 5.9375 C0.77622773 3.13326604 0.77622773 3.13326604 -2.75 3.125 C-3.636875 3.228125 -4.52375 3.33125 -5.4375 3.4375 C-3.69857595 1.24096435 -2.79998966 0.50256225 0 0 Z " fill="#D1B894" transform="translate(69.4375,44.5625)"/>
<path d="M0 0 C2 1.75 2 1.75 3 4 C2.6875 6.25 2.6875 6.25 2 8 C1.67 7.175 1.34 6.35 1 5.5 C-0.68282678 2.82688225 -0.68282678 2.82688225 -2.98046875 2.66796875 C-4.98995058 2.68575178 -6.9971564 2.83583249 -9 3 C-9 2.34 -9 1.68 -9 1 C-5.9167365 -0.54163175 -3.39121901 -0.29747535 0 0 Z " fill="#CFB795" transform="translate(72,89)"/>
<path d="M0 0 C0.33 0 0.66 0 1 0 C1.08071788 2.79224073 1.14035408 5.58216566 1.1875 8.375 C1.21263672 9.1690625 1.23777344 9.963125 1.26367188 10.78125 C1.29004405 12.85586148 1.15486462 14.93100865 1 17 C0.01 17.66 -0.98 18.32 -2 19 C-1.835 18.29101562 -1.67 17.58203125 -1.5 16.8515625 C-0.99015632 13.94386024 -0.93505104 11.32205889 -1 8.375 C-1.07083601 5.14310717 -1.03114583 3.09343748 0 0 Z " fill="#F5C189" transform="translate(119,55)"/>
<path d="M0 0 C1.32 0.66 2.64 1.32 4 2 C4 2.66 4 3.32 4 4 C1.6875 5.125 1.6875 5.125 -1 6 C-1.99 5.34 -2.98 4.68 -4 4 C-2.68 2.68 -1.36 1.36 0 0 Z " fill="#FAC226" transform="translate(70,95)"/>
<path d="M0 0 C1.98 0.495 1.98 0.495 4 1 C3.67 2.32 3.34 3.64 3 5 C1.68 4.67 0.36 4.34 -1 4 C-0.67 2.68 -0.34 1.36 0 0 Z " fill="#EBB318" transform="translate(103,67)"/>
<path d="M0 0 C0.66 0.99 1.32 1.98 2 3 C4.58380177 3.25030977 4.58380177 3.25030977 7 3 C6.67 3.99 6.34 4.98 6 6 C3.625 6.1875 3.625 6.1875 1 6 C0.34 5.01 -0.32 4.02 -1 3 C-0.67 2.01 -0.34 1.02 0 0 Z " fill="#6B5E48" transform="translate(25,69)"/>
<path d="M0 0 C1.32 0.66 2.64 1.32 4 2 C3.67 2.99 3.34 3.98 3 5 C1.68 4.67 0.36 4.34 -1 4 C-0.67 2.68 -0.34 1.36 0 0 Z " fill="#CC362F" transform="translate(27,68)"/>
<path d="M0 0 C0.99 0 1.98 0 3 0 C2.67 1.65 2.34 3.3 2 5 C1.01 4.67 0.02 4.34 -1 4 C-0.67 2.68 -0.34 1.36 0 0 Z " fill="#F6C634" transform="translate(31,29)"/>
<path d="M0 0 C3.625 -0.1875 3.625 -0.1875 7 0 C5.875 1.5 5.875 1.5 4 3 C0.8125 3.1875 0.8125 3.1875 -2 3 C-1.34 2.01 -0.68 1.02 0 0 Z " fill="#F8AB3A" transform="translate(58,12)"/>
</svg>
